<?xml version="1.0" encoding="UTF-8" standalone="no"?>
<svg
   version="1.1"
   id="Layer_1"
   x="0px"
   y="0px"
   viewBox="0 0 89.33 122.88"
   style="enable-background:new 0 0 89.33 122.88"
   xml:space="preserve"
   sodipodi:docname="app-icon.svg"
   inkscape:export-filename="app-icon.png"
   inkscape:export-xdpi="799.98999"
   inkscape:export-ydpi="799.98999"
   inkscape:version="1.2.1 (9c6d41e410, 2022-07-14)"
   xmlns:inkscape="http://www.inkscape.org/namespaces/inkscape"
   xmlns:sodipodi="http://sodipodi.sourceforge.net/DTD/sodipodi-0.dtd"
   xmlns="http://www.w3.org/2000/svg"
   xmlns:svg="http://www.w3.org/2000/svg"><defs
     id="defs9"><clipPath
       clipPathUnits="userSpaceOnUse"
       id="clipPath651"><path
         id="path653"
         style="fill:#ff0000;fill-opacity:1;fill-rule:nonzero;stroke:none"
         d="M 0,0 V 122.88086 H 89.320312 V 0 Z m 10.990234,17.800781 c 2.004814,-0.01961 4.008793,0.108835 6.013672,0.05273 0.476883,0.01898 0.953808,0.02037 1.429688,0.05664 0.351001,0.02675 0.698589,0.09745 1.048828,0.132813 1.808523,0.182593 3.625657,0.2633 5.443359,0.27539 0.173175,0.0011 0.344731,-0.02247 0.517578,-0.0332 1.095193,-0.03698 2.169254,-0.04009 3.265625,0.03516 0.421787,0.02895 0.840133,0.09129 1.261719,0.123047 2.055149,0.154806 1.689435,0.123794 3.537109,0.121094 3.052308,-0.002 6.105933,0.034 9.158204,0.01367 2.593776,-0.04102 5.201464,-0.213007 7.777343,0.203125 2.049532,0.260396 4.123195,0.450514 6.091797,1.119141 0.218411,0.07418 0.422111,0.18738 0.632813,0.28125 0.326459,0.128391 0.647498,0.268634 0.978515,0.384765 0.249489,0.08753 0.509627,0.146843 0.761719,0.226563 1.171091,0.370355 2.335744,0.770209 3.425781,1.345703 0.19446,0.102667 0.363357,0.24704 0.544922,0.371094 0.29353,0.187704 0.581108,0.383598 0.878906,0.564453 0.230364,0.139901 0.471751,0.263538 0.705079,0.398437 1.044783,0.604047 2.0992,1.211768 3.074218,1.923828 0.243901,0.185163 0.503094,0.340341 0.746094,0.527344 0.346303,0.266502 0.672417,0.557453 1.003906,0.841797 0.558807,0.496958 0.97958,0.899212 1.414063,1.527344 0.407348,0.588884 0.373763,0.366783 0.408203,0.640625 0.185419,0.294403 0.422889,0.537409 0.673828,0.779297 0.122646,0.118222 0.269435,0.213233 0.378906,0.34375 0.527536,0.628956 0.50737,0.716796 0.828125,1.4375 0.174405,0.421483 0.355894,0.839413 0.523438,1.263671 0.138649,0.351087 0.462284,0.690807 0.396484,1.0625 -0.04683,0.264542 -0.308176,0.481949 -0.529297,0.697266 0.291002,0.05642 0.582902,0.105375 0.777344,0.25 0.04014,-0.01065 0.07967,-0.0228 0.117188,-0.02148 0.552161,0.01944 -0.252242,2.070232 0.65039,1.523437 0.161945,0.435947 0.336732,0.868256 0.486328,1.308594 0.07669,0.225751 -0.120559,0.515003 0.173829,0.693359 0.508907,1.318402 0.112842,-0.04635 0.664062,1.605469 0.05033,0.150821 0.07052,0.309736 0.105469,0.464844 0.05313,0.318718 0.115136,0.635113 0.160156,0.955078 0.301628,2.143513 -0.108887,-0.295819 0.275391,2.205078 0.02779,0.18088 0.07553,0.356907 0.107422,0.537109 0.02376,0.134262 0.02312,0.272644 0.05859,0.404297 0.02543,0.09439 0.08239,0.178678 0.123047,0.267579 0.237096,1.120406 0.268808,2.276141 0.373047,3.414062 -8e-4,1.185437 0.01206,2.371207 0.002,3.556641 -0.0096,1.403121 -0.07856,2.821212 0.02148,4.222656 0.0084,0.117744 0.02955,0.232571 0.04492,0.349609 3.92e-4,0.187866 0.01356,0.376945 0.002,0.564453 -0.0061,0.09776 -0.03899,0.192373 -0.05469,0.289063 -0.04742,0.292036 -0.09229,0.584157 -0.134766,0.876953 -0.148769,1.025378 -0.322483,2.058033 -0.339843,3.095703 -0.03106,0.282368 -0.04779,0.567326 -0.09375,0.847656 -0.02199,0.134142 -0.07523,0.261002 -0.109375,0.392578 -0.07219,0.278229 -0.143205,0.556128 -0.208985,0.835938 -0.27478,1.168783 -0.511749,2.346552 -0.841797,3.501953 -0.315036,1.171117 -0.60841,2.339257 -1.050781,3.470703 -0.09987,0.255441 -0.227449,0.497863 -0.339844,0.748047 -0.400686,0.891909 -0.283524,0.614243 -0.507812,1.162109 -0.247281,0.708152 -0.13314,0.343643 -0.341797,1.087891 -0.415849,1.195703 -0.793379,2.082756 -1.320312,3.261719 -0.911417,2.039201 -0.477806,1.482155 -1.101563,2.240234 -0.0791,0.1116 -0.165831,0.217956 -0.238281,0.333985 -0.5033,0.806059 0.171943,-0.117539 -0.570313,0.953125 -0.395495,0.570479 -0.897196,1.066445 -1.46289,1.466796 l -0.792969,0.517579 c -9e-4,-0.0041 -0.001,-0.0076 -0.002,-0.01172 -0.04647,0.01824 -0.0922,0.03645 -0.138672,0.05469 -0.330067,0.196937 -0.623857,0.463605 -0.994141,0.591797 -0.426619,0.175713 -0.833712,0.325312 -1.283203,0.431641 -0.119972,0.02838 -0.245249,0.02676 -0.367187,0.04492 -0.101817,0.01516 -0.203021,0.03269 -0.304688,0.04883 -1.079111,0.386386 -2.248288,0.331625 -3.376953,0.328125 -1.214738,-0.01126 -2.430235,-0.0085 -3.644531,0.03125 -0.518973,-6.4e-4 -0.59925,0.0055 -1.216797,-0.0332 -1.202127,-0.07533 -0.285457,-0.07194 -1.761719,-0.125 -0.22655,-0.0081 -0.452991,5e-6 -0.679687,0 h -0.970703 c -1.737308,-2e-6 -3.473631,3.3e-4 -5.210938,0 -1.218359,-6e-4 -2.437894,-9.47e-4 -3.65625,0.002 -1.337138,1e-4 -2.674633,-0.01694 -4.011719,-0.002 -0.759082,0.03416 -1.514308,0.04985 -2.273437,-0.002 -0.196813,-0.01343 -0.391323,-0.0439 -0.587891,-0.06055 -0.298334,-0.02527 -0.59784,-0.04315 -0.896484,-0.06445 -1.286055,-0.0068 -2.574255,-0.03861 -3.859375,0.02344 -0.947172,0.06795 -1.886024,-0.126328 -2.816406,-0.275391 -0.456166,-0.03017 -0.731103,-0.05054 -1.208985,-0.07031 -0.63624,-0.02632 -0.497544,0.02956 -1.242187,-0.148438 -0.08822,-0.02109 -0.107359,-0.182298 -0.230469,-0.142578 -0.39813,0.0357 -0.527873,0.05617 -0.974609,0.04102 -0.946966,-0.03211 -1.853676,-0.360014 -2.767579,-0.566406 -0.466193,-0.116406 -0.932072,-0.233898 -1.398437,-0.34961 -0.478222,-0.118654 -0.956368,-0.23879 -1.435547,-0.353515 -0.08365,-0.02003 -0.171616,-0.02573 -0.253906,-0.05078 -0.338772,-0.103125 -0.559674,-0.275744 -0.902344,-0.376954 -0.380402,-0.08847 -0.928752,-0.219475 -1.304687,-0.296875 -0.426674,-0.08785 -0.35905,-0.02032 -0.837891,-0.242187 -0.19649,-0.09104 -0.626895,-0.424308 -0.761719,-0.523438 -0.02033,-0.0239 -0.04437,-0.04343 -0.06055,-0.07031 -0.0076,-0.01274 0.0039,-0.03572 -0.0078,-0.04492 -0.143177,-0.111888 -0.437951,-0.140477 -0.560547,-0.294922 -0.07054,-0.08058 -0.160888,-0.147507 -0.210938,-0.242187 -0.140952,-0.266556 -0.142165,-0.478014 -0.134765,-0.753907 v -1.273437 -2.330078 -3.06836 -2.226562 -1.935547 -2.810547 -2.246094 -3.40039 -4.91211 -4.835937 -6.003906 -4.835938 -4.320312 -4.658204 -4.257812 c -0.09099,-0.01282 -0.190385,-0.004 -0.273438,-0.04297 -0.06119,-0.02871 -0.110793,-0.07589 -0.166015,-0.115234 -0.04538,-0.01096 -0.120398,-0.07065 -0.169922,-0.119141 -0.01502,-0.01211 -0.03185,-0.02123 -0.04687,-0.0332 -0.02212,-0.01764 -0.05586,-0.06047 -0.04883,-0.07031 -0.07967,-0.08793 -0.127369,-0.141628 -0.314453,-0.339844 -0.01193,-0.01263 -0.01013,-0.04273 -0.0098,-0.07031 -0.0033,-0.0039 -0.0065,-0.0078 -0.0098,-0.01172 6.13e-4,0.0023 0.0065,-0.0068 0.0078,-0.0059 0.0035,-0.03778 0.01382,-0.0791 0.02734,-0.125 -0.0031,-2.83e-4 -0.0046,2.82e-4 -0.0078,0 -0.01669,0.05077 -0.03016,0.09627 -0.0332,0.123047 -0.0226,-0.02669 -0.04459,-0.05274 -0.06641,-0.08008 -0.02001,-0.02508 -0.08053,-0.06107 -0.05469,-0.08008 0.01662,-0.01223 0.03601,0.02651 0.05664,0.02734 0.06078,0.0025 0.05711,0.0062 0.09766,0.0098 0.03962,-0.120576 0.08404,-0.222447 0.08594,-0.216797 -0.06569,0.0521 -0.130991,0.104734 -0.199219,0.152344 -0.446301,-0.08715 -0.874512,-0.265455 -1.320313,-0.359375 0.149432,-0.168999 0.02131,-7.06e-4 -0.285156,0.02734 -0.338231,0.03096 -0.466171,-0.01987 -0.765625,-0.109375 C 11.559256,23.6587 11.598625,23.666573 10.992188,23.462891 9.7249209,22.94163 10.304561,23.211332 9.1914062,22.640625 8.9385872,22.511006 8.6873635,22.3797 8.4335938,22.251953 8.3443349,22.207018 8.2415284,22.183697 8.1621094,22.123047 7.8593056,21.89179 7.8480406,21.958721 7.8847656,21.8125 7.6886837,21.473193 8.091981,22.145772 7.6308594,21.560547 7.2166281,21.034831 7.2292527,21.113722 7.1992188,20.664062 c -0.00488,-0.111743 -0.026407,-0.426429 -0.00391,-0.548828 0.028455,-0.154787 0.078085,-0.305601 0.1210937,-0.457031 0.00582,-0.127337 0.012281,-0.327813 0.060547,-0.421875 0.2478953,-0.483107 0.2877658,-0.478597 0.625,-0.742187 0.1173325,-0.0721 0.22946,-0.153107 0.3515625,-0.216797 0.8027312,-0.418697 1.754405,-0.442063 2.636718,-0.476563 z m 3.751954,6.330078 c -0.01194,0.02796 -0.0472,0.111864 -0.07813,0.216797 0.212894,0.01945 0.224984,0.04453 0.337891,-0.0293 -0.0855,-0.06195 -0.168592,-0.128051 -0.251953,-0.193359 -0.0026,0.002 -0.0053,0.0038 -0.0078,0.0059 z m 59.416015,10.636719 c -0.290211,0.077 -0.634158,0.415644 -0.861328,0.486328 0.449306,-0.03679 1.17467,0.07012 1.039063,-0.271484 -0.03728,-0.09391 -0.103093,-0.159326 -0.177735,-0.214844 z m -0.777344,-0.25 c -0.244759,-0.04745 -0.485067,-0.102767 -0.65039,-0.25 -0.283926,-0.252857 -0.258797,-0.714734 -0.398438,-1.068359 -0.161958,-0.410144 -0.337009,-0.815303 -0.505859,-1.222657 -0.284862,-0.639082 -0.239286,-0.685458 -0.679688,-1.171874 -0.0501,-0.05534 -0.124857,-0.08021 -0.179687,-0.13086 -0.355232,-0.328132 -0.633807,-0.645578 -0.90625,-1.039062 -0.181682,-0.373822 -0.06225,-0.163333 -0.398438,-0.626954 -0.102699,-0.141628 -0.197671,-0.288543 -0.308593,-0.423828 -0.269846,-0.329112 -0.587994,-0.593889 -0.904297,-0.875 -0.509224,-0.492346 -1.093419,-0.884285 -1.66211,-1.298828 -0.08393,-0.06562 -0.163383,-0.138065 -0.251953,-0.197265 -0.878562,-0.587235 -1.794585,-1.123965 -2.708984,-1.652344 -0.228403,-0.131981 -0.463993,-0.253678 -0.689453,-0.390625 -0.316588,-0.192298 -0.625116,-0.396649 -0.9375,-0.595703 -0.192379,-0.131194 -0.370139,-0.286035 -0.576172,-0.394531 -0.974134,-0.512978 -2.063942,-0.859957 -3.109375,-1.189454 -0.240343,-0.07575 -0.486843,-0.131353 -0.72461,-0.214843 -0.36464,-0.128038 -0.719845,-0.279961 -1.080078,-0.419922 -0.228396,-0.101251 -0.449002,-0.222345 -0.685546,-0.302735 -1.842242,-0.626131 -3.821397,-0.775987 -5.738282,-1.019531 -2.516461,-0.406218 -5.065712,-0.235762 -7.599609,-0.195312 -3.058674,0.02074 -6.117069,-0.01372 -9.175781,-0.01172 -1.866463,0.0027 -1.50912,0.03349 -3.615235,-0.123047 -0.436968,-0.03248 -0.871452,-0.09689 -1.308593,-0.126953 -1.040799,-0.07157 -2.060062,-0.06723 -3.09961,-0.03125 -1.108957,0.06994 -0.470509,0.04364 -2.472656,-0.01563 -0.564846,-0.01672 -1.131353,-0.02673 -1.695313,-0.0625 -1.029044,0.04826 -2.024971,-0.226888 -3.041015,-0.304688 -0.439554,-0.03365 -0.881717,-0.03282 -1.322266,-0.04883 -1.984564,0.05867 -3.968591,-0.07137 -5.953125,-0.05078 -0.542832,0.01009 -0.361011,-0.0045 -1.0292968,0.07227 -0.50049,0.05748 -0.878485,0.139423 -1.2929687,0.421875 -0.020674,0.01991 -0.038104,0.04266 -0.060547,0.06055 -0.012424,0.0099 -0.020602,0.01348 -0.039063,0.02734 -0.00644,0.02779 -0.017052,0.04907 -0.00586,0.09961 -9.218e-4,-0.03126 0.00193,-0.114714 -0.00391,-0.09375 l -0.085937,0.498047 c -0.034218,0.05837 -0.083274,0.108688 -0.1015625,0.173828 -0.00644,0.02294 0.045632,-0.05003 0.0625,-0.0332 0.023517,0.02347 4.031e-4,0.06642 0.00195,0.09961 0.00315,0.06751 0.00799,0.135648 0.011719,0.203125 0.045535,-0.01809 0.1102942,0.0923 0.15625,0.138672 0.091686,0.09251 0.1705373,0.196512 0.2558594,0.294922 0.013586,0.02352 0.027895,0.0465 0.041016,0.07031 0.2841706,0.135524 0.5644259,0.27847 0.8457031,0.419922 1.1995215,0.603233 0.4182805,0.254293 1.7109375,0.779297 0.525367,0.173641 0.527381,0.178683 1.074219,0.341797 0.09619,0.02869 0.189712,0.06771 0.289062,0.08203 0.03006,0.0043 0.105528,-0.0041 0.08594,-0.02734 -0.02386,-0.02823 -0.0724,-0.0016 -0.109375,-0.002 0.174229,-0.0078 0.347254,-0.01564 0.521484,-0.02344 0.09092,0.01977 0.182968,0.03881 0.273438,0.06055 0.363374,0.08733 0.727006,0.184467 1.080078,0.308594 0.0015,-9.27e-4 0.0024,-0.003 0.0039,-0.0039 0.02498,0.0083 0.09894,0.03447 0.07422,0.02539 -0.02533,-0.0093 -0.05266,-0.01253 -0.07813,-0.02148 -0.06977,0.0423 -0.136283,0.09323 -0.203125,0.142578 0.616412,-0.229299 0.807749,0.168834 1.136719,0.515625 0.0841,0.0763 -0.08419,-0.05201 -0.117188,-0.08789 -0.05797,-0.06301 0.155855,0.08486 0.203125,0.15625 0.05885,0.08887 0.06852,0.114206 0.09766,0.162109 0.317902,-0.615705 1.128907,-0.433912 1.128907,0.572266 v 5.042968 4.658204 4.320312 4.833984 6.00586 4.835937 4.91211 3.40039 2.246094 2.810547 1.935547 2.226562 3.06836 2.330078 1.273437 0.05664 0.0059 c 0.01658,0.01037 0.01714,0.01322 0.05273,0.0293 0.23486,0.106081 0.413049,0.277083 0.58789,0.460938 0.01564,0.0096 0.493894,0.30373 0.496094,0.304687 0.273828,0.12067 0.155747,0.02674 0.357422,0.06641 0.42968,0.08452 0.973809,0.215451 1.408203,0.316407 1.736194,0.633248 -0.169954,-0.09701 0.884766,0.380859 0.18028,0.08168 0.07294,0.0023 0.195312,0.03125 0.509488,0.120432 1.019071,0.247586 1.527344,0.373047 0.468172,0.115561 0.934485,0.23279 1.402344,0.349609 0.855064,0.1808 1.698798,0.512737 2.583984,0.535157 0.305553,0.0077 0.453906,-0.01287 0.734375,-0.04102 0.199573,0.03975 0.400037,0.07939 0.59961,0.119141 0.117242,0.05692 0.225139,0.13825 0.351562,0.169922 0.09935,0.02487 0.204226,-0.0054 0.306641,-0.0059 0.118963,-5e-4 0.238542,-5.94e-4 0.357422,0.0039 0.46627,0.01753 0.816849,0.04244 1.269531,0.07227 0.516226,0.07577 1.015877,0.172366 1.535156,0.228516 0.356534,0.03852 0.728539,0.09241 1.087891,0.04883 1.323651,-0.06866 2.64985,-0.0363 3.974609,-0.0293 0.325711,0.02232 0.653144,0.04156 0.978516,0.06836 0.210963,0.01738 0.419678,0.04996 0.630859,0.06445 0.695503,0.04774 1.390518,0.02776 2.085938,-0.0039 1.35604,-0.01732 2.712252,0.0021 4.068359,0.002 1.218593,-0.0029 2.437654,-0.0025 3.65625,-0.002 1.737108,3.29e-4 3.47383,-3e-6 5.210938,0 h 0.970703 c 0.226698,4e-6 0.453132,-0.0081 0.679687,0 0.995682,0.03551 1.981535,0.15765 2.978516,0.15625 1.218174,-0.04022 2.437626,-0.04253 3.65625,-0.03125 0.688502,0.0139 1.367743,0.0135 2.052734,-0.06055 0.289797,-0.03133 0.595506,-0.06734 0.865234,-0.185547 0.444239,-0.09315 0.472261,-0.111256 0.873047,-0.160156 0.05495,-0.0067 0.110283,0.0014 0.164063,-0.01172 0.05288,-0.01292 0.09901,-0.04648 0.15039,-0.06445 0.697685,-0.244055 -0.04185,0.05581 0.728516,-0.271484 0.391747,-0.158734 0.692347,-0.462009 1.082031,-0.625 0.07709,-0.03224 0.170235,-0.02663 0.240235,-0.07227 0.130962,-0.0854 0.233088,-0.208259 0.349609,-0.3125 0.472585,-0.327041 0.885636,-0.739558 1.207031,-1.216797 0.844971,-1.254691 -0.103716,0.113762 0.460938,-0.787109 0.09675,-0.154362 0.205599,-0.300903 0.308594,-0.451172 0.06926,-0.08632 0.160704,-0.158232 0.208984,-0.257812 0.282529,-0.582766 0.521506,-1.187127 0.779297,-1.78125 0.58449,-1.347059 0.832325,-1.869342 1.289062,-3.183594 0.05218,-0.150143 0.07764,-0.307254 0.125,-0.458985 0.06309,-0.202113 0.138112,-0.401359 0.207032,-0.601562 0.04514,-0.111954 0.08671,-0.225195 0.134765,-0.335938 0.134328,-0.309626 0.273941,-0.615896 0.41211,-0.923828 0.113422,-0.252777 0.242928,-0.499751 0.34375,-0.757812 0.415434,-1.063325 0.684934,-2.17565 0.980468,-3.275391 0.325247,-1.137205 0.55758,-2.298771 0.828125,-3.449219 0.06835,-0.290657 0.141937,-0.58009 0.216797,-0.86914 0.03706,-0.143096 0.09545,-0.279874 0.119141,-0.425781 0.03385,-0.20843 0.03517,-0.420431 0.05273,-0.63086 0.01962,-1.053112 0.194873,-2.103504 0.345703,-3.144531 0.0434,-0.299531 0.09017,-0.599691 0.138672,-0.898438 0.01773,-0.109229 0.05375,-0.21572 0.06055,-0.326171 0.0062,-0.100187 -0.01418,-0.200668 -0.02148,-0.300782 -0.01125,-0.06839 -0.0282,-0.135948 -0.0332,-0.205078 -0.10586,-1.465847 -0.0431,-2.942315 -0.0332,-4.410156 0.01003,-1.18287 -0.0047,-2.364001 -0.0039,-3.546875 -0.05737,-0.765938 -0.127927,-1.532974 -0.210937,-2.296875 -0.06682,-0.61492 -0.02898,-0.395845 -0.132813,-0.845703 -0.118934,-0.433063 -0.22295,-0.781366 -0.292968,-1.232422 -0.402858,-2.595292 0.01162,-0.140641 -0.292969,-2.308594 -0.04197,-0.298692 -0.100271,-0.593193 -0.150391,-0.890625 -0.03025,-0.131266 -0.04579,-0.26723 -0.08984,-0.394531 -0.47667,-1.377636 -0.126291,-0.172463 -0.583984,-1.365234 -0.274181,-0.295974 -0.159414,-0.693254 -0.273438,-1.029297 -0.119993,-0.353645 -0.27747,-0.692265 -0.416015,-1.039063 -0.141466,-0.340866 -0.278856,-0.684047 -0.423828,-1.023437 -0.06211,-0.145401 -0.131676,-0.287776 -0.197266,-0.431641 0.02063,-0.0049 0.0548,-0.0024 0.07813,-0.0059 -0.04881,-0.0066 -0.09122,-0.03003 -0.117187,-0.0957 -0.09462,-0.239311 0.08116,-0.442192 0.292968,-0.648438 z M 8.9257812,21.121094 C 8.9498202,21.164568 8.9726123,21.208599 9,21.25 9.024714,21.28736 8.969028,21.1645 8.939453,21.130859 c -0.00371,-0.0042 -0.00756,-0.0049 -0.013672,-0.0098 z m 5.5195308,2.080078 c -0.0012,8.57e-4 -0.0027,0.0011 -0.0039,0.002 0.002,3.83e-4 0.0039,0.0016 0.0059,0.002 -10e-4,-8.94e-4 -9.24e-4,-0.003 -0.002,-0.0039 z m -0.388671,0.43164 c -0.04423,-0.02473 -0.01091,0.101764 -0.0078,0.152344 0.0015,0.02518 -0.0031,0.06647 0.02148,0.07227 0.162461,0.03842 0.325809,0.08367 0.490235,0.11914 -0.161121,-0.1247 -0.326488,-0.244564 -0.503906,-0.34375 z m 1.11914,0.205079 c -0.09764,0.05009 -0.18924,0.108853 -0.277343,0.175781 0.0677,0.0055 0.135056,0.02263 0.203124,0.01953 0.04851,-0.0022 0.10378,-0.08063 0.132813,-0.146484 -0.02142,-0.01372 -0.03779,-0.03423 -0.05859,-0.04883 z m 0.177735,0.0332 c -0.02286,0.0024 -0.01951,0.004 -0.03516,0.0059 -4.3e-5,0.0015 6.8e-5,0.0025 0,0.0039 0.01569,-0.0031 0.01052,-0.0054 0.03516,-0.0098 z m 0.04101,0.123047 c -0.130115,0.0564 0.06402,0.305109 0.273438,0.570312 v -0.06836 c 0,-0.09511 0.01968,-0.169381 0.0332,-0.25 -0.123477,-0.118728 -0.228055,-0.205308 -0.306641,-0.251953 z m 0.166016,0.01172 c 0.04813,0.01847 0.107757,0.04688 0.166015,0.07227 0.0052,-0.0171 0.01566,-0.02671 0.02149,-0.04297 -0.01827,-0.0029 -0.03529,-0.009 -0.05274,-0.01367 -0.06886,-0.01864 -0.0882,-0.0099 -0.134765,-0.01563 z m 0.333984,0.103516 c 0.0037,0.01281 0.0069,0.0385 0.0098,0.05273 0.03072,0.01509 0.05331,0.02211 0.08594,0.03906 -0.03033,-0.03239 -0.06331,-0.06203 -0.0957,-0.0918 z" /></clipPath></defs><sodipodi:namedview
     id="namedview7"
     pagecolor="#ffffff"
     bordercolor="#999999"
     borderopacity="1"
     inkscape:pageshadow="0"
     inkscape:pageopacity="0"
     inkscape:pagecheckerboard="0"
     showgrid="false"
     inkscape:zoom="4"
     inkscape:cx="-24.875"
     inkscape:cy="44"
     inkscape:window-width="960"
     inkscape:window-height="865"
     inkscape:window-x="0"
     inkscape:window-y="0"
     inkscape:window-maximized="1"
     inkscape:current-layer="g60"
     inkscape:showpageshadow="2"
     inkscape:deskcolor="#d1d1d1" /><g
     id="g4"><path
       id="path2"
       clip-path="url(#clipPath651)"
       d="M 7.2304688,0 C 5.2404687,0 3.4291406,0.80914082 2.1191406,2.1191406 c -0.87,0.88 -1.52937493,1.9809375 -1.85937498,3.2109375 C 0.08976562,5.6500781 0,6.0103906 0,6.4003906 V 116.10938 c 0,1.87 0.76046825,3.56128 1.9804688,4.78124 1.23,1.23002 2.9192968,1.99024 4.7792968,1.99024 H 86.960938 c 1.299998,0 2.359378,-1.06133 2.359374,-2.36133 V 12.109375 c 10e-7,-1.09 -0.749765,-2.019297 -1.759765,-2.2792969 -0.21,-0.07 -0.439922,-0.099609 -0.669922,-0.099609 v 0.00977 H 7.2304688 C 6.5404688,9.7401874 5.9209375,9.46 5.4609375,9 5.0009375,8.54 4.7207031,7.9204688 4.7207031,7.2304688 c 0,-0.6900001 0.2802344,-1.3195313 0.7402344,-1.7695313 0.45,-0.46 1.0795312,-0.7402344 1.7695313,-0.7402344 H 86.900391 c 1.3,0 2.359375,-1.0613281 2.359375,-2.3613281 C 89.259766,1.059375 88.200391,0 86.900391,0 Z M 4.7207031,14 c 0.78,0.29 1.6297657,0.449219 2.5097657,0.449219 h 77.3789062 0.0098 V 118.16992 H 6.7695312 c -0.57,0 -1.0792187,-0.22961 -1.4492187,-0.59961 -0.37,-0.38 -0.5996094,-0.89117 -0.5996094,-1.45117 z M 56.404297,64.580078 c 0.012,0.01102 0.02504,0.02597 0.03711,0.03711 0.0013,-0.0086 0.0026,-0.01682 0.0039,-0.02539 -0.01373,-0.0039 -0.02721,-0.0078 -0.04102,-0.01172 z M 18.589844,89.75 c -1.3,0 -2.359375,1.059375 -2.359375,2.359375 0,1.3 1.059375,2.361328 2.359375,2.361328 h 52.080078 c 1.3,0 2.359375,-1.061328 2.359375,-2.361328 0,-1.3 -1.059375,-2.359375 -2.359375,-2.359375 z m 9.599609,12.35938 c -1.3,-3e-5 -2.359375,1.06132 -2.359375,2.36132 0,1.3 1.059375,2.35938 2.359375,2.35938 h 32.871094 c 1.3,0 2.359375,-1.05938 2.359375,-2.35938 0,-1.3 -1.059375,-2.36133 -2.359375,-2.36132 z" /></g><g
     style="clip-rule:evenodd;fill-rule:evenodd;image-rendering:optimizeQuality;shape-rendering:geometricPrecision;text-rendering:geometricPrecision"
     id="g60"
     transform="matrix(0.08170745,0,0,0.08170745,23.743049,28.554391)"><path
       fill-rule="nonzero"
       d="M -20.913704,-67.265993 H 532.9137 c 25.639,0 46.41542,21.243733 46.41542,46.76905 V 532.01694 c 0,25.50006 -20.80169,46.76905 -46.41542,46.76905 H 56.798954 c -3.650082,0 -6.946523,-1.47771 -9.333602,-3.86479 L -63.46432,463.9789 c -2.479413,-2.46748 -3.870718,-5.82299 -3.864794,-9.32097 V -20.496943 c 0,-25.537947 20.776422,-46.76905 46.41541,-46.76905 z M 157.7617,487.22873 c -16.57395,0 -16.57395,-25.1924 0,-25.1924 h 185.59204 c 16.56189,0 16.56189,25.1924 0,25.1924 z m 0,-77.60224 c -16.57395,0 -16.57395,-25.19239 0,-25.19239 h 185.59204 c 16.56189,0 16.56189,25.19239 0,25.19239 z M 395.54806,528.99194 V 375.7469 c 0,-18.35833 -15.17461,-33.52201 -33.53294,-33.52201 H 139.08938 c -18.35834,0 -33.522,15.16368 -33.522,33.52201 v 153.24504 z m 39.93272,-159.33578 v 169.1989 h 84.79833 c 10.6676,0 19.10524,-8.88363 19.10524,-19.44274 V -7.8923163 c 0,-10.5832187 -8.42559,-19.4427457 -19.10524,-19.4427457 H 435.48078 V 177.7841 c 0,34.12425 -28.00093,62.13723 -62.12518,62.13723 H 127.74779 c -34.160412,0 -62.12518,-27.97682 -62.12518,-62.13723 V -27.335062 H -8.2791118 c -10.6917022,0 -19.1052402,8.847474 -19.1052402,19.4427457 V 440.36363 L 65.62261,533.37059 V 369.65616 c 0,-34.1363 27.988875,-62.12518 62.12518,-62.12518 H 373.3556 c 34.01576,0 62.12518,28.10942 62.12518,62.12518 z M 395.54806,170.01859 V -16.157664 H 105.56738 V 170.01859 c 0,18.38021 15.15273,33.53295 33.522,33.53295 h 222.92574 c 18.34739,0 33.53294,-15.18556 33.53294,-33.53295 z"
       id="path51"
       sodipodi:nodetypes="sssssscccsssssssssssscssssccscsssscsssscssccsssssccssss"
       style="stroke-width:1.20538" /></g></svg>
